<svg width="2560" height="400" viewBox="0 0 2560 400" fill="none" xmlns="http://www.w3.org/2000/svg">
<g clip-path="url(#clip0_42_33)">
<path d="M-365.052 212.9C-200.576 261.556 -23.9647 291.913 137.368 275.41C298.7 258.906 340.01 212.9 541.536 212.9C743.063 212.9 672.724 275.41 897.138 275.41C1121.55 275.41 1153.37 212.9 1289.58 212.9C1425.8 212.9 1542.47 275.41 1677.56 275.41C1812.66 275.41 1784.75 212.9 1990.74 212.9C2196.73 212.9 2193.94 275.41 2336.29 275.41C2478.64 275.41 2429.52 243.904 2537.26 187.396C2645 130.887 2645 285.911 2645 285.911V822H-585L-552.064 212.9H-365.052Z" fill="#0096fa" fill-opacity="0.75"/>
<path d="M-365.052 212.9C-200.576 261.556 -23.9647 291.913 137.368 275.41C298.7 258.906 340.01 212.9 541.536 212.9C743.063 212.9 672.724 275.41 897.138 275.41C1121.55 275.41 1153.37 212.9 1289.58 212.9C1425.8 212.9 1542.47 275.41 1677.56 275.41C1812.66 275.41 1784.75 212.9 1990.74 212.9C2196.73 212.9 2193.94 275.41 2336.29 275.41C2478.64 275.41 2429.52 243.904 2537.26 187.396C2645 130.887 2645 285.911 2645 285.911V822H-585L-552.064 212.9H-365.052Z" fill="#0096fa" fill-opacity="0.75"/>
<path d="M-975.743 237.9C-778.881 286.556 -567.495 316.913 -374.395 300.41C-181.296 283.906 -131.851 237.9 109.356 237.9C350.563 237.9 266.375 300.41 534.977 300.41C803.579 300.41 841.664 237.9 1004.7 237.9C1167.73 237.9 1307.38 300.41 1469.07 300.41C1630.77 300.41 1597.36 237.9 1843.91 237.9C2090.46 237.9 2087.12 300.41 2257.51 300.41C2427.89 300.41 2369.09 268.904 2498.04 212.396C2627 155.887 2627 310.911 2627 310.911V847H-1239L-1199.58 237.9H-975.743Z" fill="#0096fa" fill-opacity="0.5"/>
<path d="M-975.743 237.9C-778.881 286.556 -567.495 316.913 -374.395 300.41C-181.296 283.906 -131.851 237.9 109.356 237.9C350.563 237.9 266.375 300.41 534.977 300.41C803.579 300.41 841.664 237.9 1004.7 237.9C1167.73 237.9 1307.38 300.41 1469.07 300.41C1630.77 300.41 1597.36 237.9 1843.91 237.9C2090.46 237.9 2087.12 300.41 2257.51 300.41C2427.89 300.41 2369.09 268.904 2498.04 212.396C2627 155.887 2627 310.911 2627 310.911V847H-1239L-1199.58 237.9H-975.743Z" fill="#0096fa" fill-opacity="0.5"/>
<path d="M-51 193.5C96.3154 242.149 254.5 272.502 399 256.001C543.5 239.5 580.5 193.5 761 193.5C941.5 193.5 878.5 256.001 1079.5 256.001C1280.5 256.001 1309 193.5 1431 193.5C1553 193.5 1657.5 256.001 1778.5 256.001C1899.5 256.001 1874.5 193.5 2059 193.5C2243.5 193.5 2241 256.001 2368.5 256.001C2496 256.001 2452 224.5 2548.5 168C2645 111.5 2645 266.501 2645 266.501V802.508H-248L-218.5 193.5H-51Z" fill="#0096fa"/>
<path d="M-51 193.5C96.3154 242.149 254.5 272.502 399 256.001C543.5 239.5 580.5 193.5 761 193.5C941.5 193.5 878.5 256.001 1079.5 256.001C1280.5 256.001 1309 193.5 1431 193.5C1553 193.5 1657.5 256.001 1778.5 256.001C1899.5 256.001 1874.5 193.5 2059 193.5C2243.5 193.5 2241 256.001 2368.5 256.001C2496 256.001 2452 224.5 2548.5 168C2645 111.5 2645 266.501 2645 266.501V802.508H-248L-218.5 193.5H-51Z" fill="#0096fa"/>

</g>
<defs>
<clipPath id="clip0_42_33">
<rect width="2560" height="400" fill="white"/>
</clipPath>
</defs>
</svg>
